<svg xmlns="http://www.w3.org/2000/svg" viewBox="0 0 48 48" width="48" height="48" role="img" aria-label="Tommi.AI">
  <!-- Gem periwinkle -->
  <rect x="1" y="1" width="46" height="46" rx="12" fill="#A9B1F8"/>
  <rect x="1" y="1" width="46" height="46" rx="12" fill="url(#g)" opacity="0.35"/>
  <defs>
    <linearGradient id="g" x1="0" y1="0" x2="1" y2="1">
      <stop offset="0" stop-color="#EEF0FE"/>
      <stop offset="1" stop-color="#8B95F5"/>
    </linearGradient>
  </defs>
  <!-- Tommi bear (mascota canonica), reescalada dentro del gem -->
  <g transform="translate(24 25) scale(0.72) translate(-24 -24)">
    <ellipse cx="10" cy="11" rx="7" ry="7" fill="#A9B1F8"/>
    <ellipse cx="10" cy="11" rx="4.5" ry="4.5" fill="#C8CCFA"/>
    <ellipse cx="38" cy="11" rx="7" ry="7" fill="#A9B1F8"/>
    <ellipse cx="38" cy="11" rx="4.5" ry="4.5" fill="#C8CCFA"/>
    <path d="M24 8C14 8 9 15 9 22C9 32 15 39 24 40C33 39 39 32 39 22C39 15 34 8 24 8Z" fill="#C0C5F8"/>
    <ellipse cx="24" cy="30" rx="9" ry="7" fill="#A9B1F8"/>
    <path d="M20.5 25.5 Q24 24 27.5 25.5 Q27 28 24 29 Q21 28 20.5 25.5 Z" fill="#5A62E0"/>
    <path d="M20 31 Q24 35 28 31" stroke="#5A62E0" stroke-width="1.3" stroke-linecap="round" fill="none"/>
    <path d="M15.5 20 Q18 17.5 20.5 20" stroke="#1A2340" stroke-width="1.6" stroke-linecap="round" fill="none"/>
    <path d="M27.5 20 Q30 17.5 32.5 20" stroke="#1A2340" stroke-width="1.6" stroke-linecap="round" fill="none"/>
    <circle cx="24" cy="15.5" r="1.2" fill="#2DC49C"/>
    <ellipse cx="13.5" cy="27" rx="3.5" ry="2.5" fill="#F0DAD2" opacity="0.8"/>
    <ellipse cx="34.5" cy="27" rx="3.5" ry="2.5" fill="#F0DAD2" opacity="0.8"/>
  </g>
</svg>
